<svg width="68" height="68" viewBox="0 0 68 68" fill="none" xmlns="http://www.w3.org/2000/svg">
<path d="M37.3486 15.2349L44.1778 27.407" stroke="#F62974" stroke-width="4" stroke-linecap="round" stroke-linejoin="round"/>
<path d="M59.0956 33.8462C55.8019 37.2007 51.8728 39.8653 47.5377 41.6843C43.2026 43.5032 38.5486 44.44 33.8473 44.44C29.1461 44.44 24.492 43.5032 20.157 41.6843C15.8219 39.8653 11.8927 37.2007 8.59906 33.8462" stroke="#F62974" stroke-width="4" stroke-linecap="round" stroke-linejoin="round"/>
<path d="M65.6915 65.6925L58.0486 52.105" stroke="#F62974" stroke-width="4" stroke-linecap="round" stroke-linejoin="round"/>
<path d="M2 65.6925L30.378 15.2349" stroke="#F62974" stroke-width="4" stroke-linecap="round" stroke-linejoin="round"/>
<path d="M33.8457 16.1536C37.7541 16.1536 40.9225 12.9852 40.9225 9.07681C40.9225 5.16839 37.7541 2 33.8457 2C29.9373 2 26.7689 5.16839 26.7689 9.07681C26.7689 12.9852 29.9373 16.1536 33.8457 16.1536Z" stroke="#F62974" stroke-width="4" stroke-linecap="round" stroke-linejoin="round"/>
</svg>
