<svg width="24" height="22" viewBox="0 0 24 22" fill="none" xmlns="http://www.w3.org/2000/svg">
<path d="M15.7369 7.3158C17.4119 7.3158 19.0184 7.98121 20.2028 9.16565C21.3873 10.3501 22.0527 11.9565 22.0527 13.6316V21H17.8421V13.6316C17.8421 13.0732 17.6203 12.5378 17.2255 12.1429C16.8307 11.7481 16.2952 11.5263 15.7369 11.5263C15.1785 11.5263 14.643 11.7481 14.2482 12.1429C13.8534 12.5378 13.6316 13.0732 13.6316 13.6316V21H9.42108V13.6316C9.42108 11.9565 10.0865 10.3501 11.2709 9.16565C12.4554 7.98121 14.0618 7.3158 15.7369 7.3158Z" stroke="white" stroke-width="2" stroke-linecap="round" stroke-linejoin="round"/>
<path d="M5.21053 8.36841H1V21H5.21053V8.36841Z" stroke="white" stroke-width="2" stroke-linecap="round" stroke-linejoin="round"/>
<path d="M3.10526 5.21053C4.26797 5.21053 5.21053 4.26797 5.21053 3.10526C5.21053 1.94256 4.26797 1 3.10526 1C1.94256 1 1 1.94256 1 3.10526C1 4.26797 1.94256 5.21053 3.10526 5.21053Z" stroke="white" stroke-width="2" stroke-linecap="round" stroke-linejoin="round"/>
</svg>
