<svg width="1157" height="994" viewBox="0 0 1157 994" fill="none" xmlns="http://www.w3.org/2000/svg">
<mask id="path-1-outside-1_103_1601" maskUnits="userSpaceOnUse" x="-1" y="-1" width="1158" height="995" fill="black">
<rect fill="white" x="-1" y="-1" width="1158" height="995"/>
<path fill-rule="evenodd" clip-rule="evenodd" d="M40.1276 907.196C11.3176 890.563 1.44658 853.724 18.08 824.914L233.388 451.989L125.601 389.759C96.7911 373.125 86.9201 336.286 103.554 307.476L171.651 189.527C188.285 160.717 225.124 150.846 253.934 167.48L361.721 229.71L471.177 40.1276C487.81 11.3176 524.649 1.44658 553.459 18.08L671.408 86.1779C700.218 102.811 710.089 139.651 693.456 168.46L584 358.043L695.326 422.317L915.983 40.1276C932.617 11.3176 969.456 1.44658 998.266 18.08L1116.21 86.1779C1145.02 102.811 1154.9 139.651 1138.26 168.46L917.605 550.65L1038.72 620.576C1067.53 637.21 1077.4 674.049 1060.77 702.859L992.67 820.808C976.037 849.618 939.197 859.489 910.387 842.855L789.272 772.929L685.166 953.247C668.532 982.057 631.693 991.928 602.883 975.294L484.934 907.196C456.124 890.563 446.253 853.724 462.886 824.914L566.993 644.596L455.667 580.322L240.359 953.247C223.726 982.057 186.886 991.928 158.077 975.294L40.1276 907.196Z"/>
</mask>
<path d="M18.08 824.914L9.41978 819.914L9.41977 819.914L18.08 824.914ZM40.1276 907.196L45.1276 898.536L45.1276 898.536L40.1276 907.196ZM233.388 451.989L242.048 456.989L247.048 448.329L238.388 443.329L233.388 451.989ZM125.601 389.759L120.601 398.419L120.601 398.419L125.601 389.759ZM103.554 307.476L94.8933 302.476L94.8933 302.476L103.554 307.476ZM171.651 189.527L180.312 194.527L180.312 194.527L171.651 189.527ZM253.934 167.48L248.934 176.14L248.934 176.14L253.934 167.48ZM361.721 229.71L356.721 238.371L365.381 243.371L370.381 234.71L361.721 229.71ZM471.177 40.1276L462.516 35.1276L462.516 35.1276L471.177 40.1276ZM553.459 18.08L558.459 9.41977L558.459 9.41977L553.459 18.08ZM671.408 86.1779L666.408 94.8381L666.408 94.8381L671.408 86.1779ZM693.456 168.46L684.795 163.46L684.795 163.46L693.456 168.46ZM584 358.043L575.34 353.043L570.34 361.704L579 366.704L584 358.043ZM695.326 422.317L690.326 430.977L698.986 435.977L703.986 427.317L695.326 422.317ZM915.983 40.1276L907.323 35.1276L907.323 35.1276L915.983 40.1276ZM998.266 18.08L1003.27 9.41977L1003.27 9.41977L998.266 18.08ZM1116.21 86.1779L1111.21 94.8381L1111.21 94.8381L1116.21 86.1779ZM1138.26 168.46L1146.92 173.46L1146.92 173.46L1138.26 168.46ZM917.605 550.65L908.945 545.65L903.945 554.31L912.605 559.31L917.605 550.65ZM1038.72 620.576L1043.72 611.916L1043.72 611.916L1038.72 620.576ZM1060.77 702.859L1069.43 707.859L1069.43 707.859L1060.77 702.859ZM992.67 820.808L984.01 815.808L984.01 815.808L992.67 820.808ZM910.387 842.855L915.387 834.195L915.387 834.195L910.387 842.855ZM789.272 772.929L794.272 764.269L785.612 759.269L780.612 767.929L789.272 772.929ZM685.166 953.247L676.505 948.247L685.166 953.247ZM602.883 975.294L597.883 983.955L597.883 983.955L602.883 975.294ZM484.934 907.196L489.934 898.536L489.934 898.536L484.934 907.196ZM462.886 824.914L454.226 819.914L454.226 819.914L462.886 824.914ZM566.993 644.596L575.653 649.596L580.653 640.936L571.993 635.936L566.993 644.596ZM455.667 580.322L460.667 571.662L452.007 566.662L447.007 575.322L455.667 580.322ZM240.359 953.247L249.019 958.247L249.019 958.247L240.359 953.247ZM158.077 975.294L153.077 983.955L153.077 983.955L158.077 975.294ZM9.41977 819.914C-9.97509 853.507 1.53465 896.462 35.1276 915.857L45.1276 898.536C21.1005 884.664 12.8683 853.941 26.7403 829.914L9.41977 819.914ZM224.728 446.989L9.41978 819.914L26.7403 829.914L242.048 456.989L224.728 446.989ZM120.601 398.419L228.388 460.65L238.388 443.329L130.601 381.098L120.601 398.419ZM94.8933 302.476C75.4985 336.069 87.0082 379.024 120.601 398.419L130.601 381.098C106.574 367.226 98.3418 336.503 112.214 312.476L94.8933 302.476ZM162.991 184.527L94.8933 302.476L112.214 312.476L180.312 194.527L162.991 184.527ZM258.934 158.819C225.341 139.424 182.386 150.934 162.991 184.527L180.312 194.527C194.184 170.5 224.907 162.268 248.934 176.14L258.934 158.819ZM366.721 221.05L258.934 158.819L248.934 176.14L356.721 238.371L366.721 221.05ZM462.516 35.1276L353.061 224.71L370.381 234.71L479.837 45.1276L462.516 35.1276ZM558.459 9.41977C524.866 -9.9751 481.911 1.53467 462.516 35.1276L479.837 45.1276C493.709 21.1005 524.432 12.8683 548.459 26.7403L558.459 9.41977ZM676.408 77.5176L558.459 9.41977L548.459 26.7403L666.408 94.8381L676.408 77.5176ZM702.116 173.461C721.511 139.868 710.001 96.9125 676.408 77.5176L666.408 94.8381C690.435 108.71 698.667 139.433 684.795 163.46L702.116 173.461ZM592.66 363.043L702.116 173.46L684.795 163.46L575.34 353.043L592.66 363.043ZM700.326 413.657L589 349.383L579 366.704L690.326 430.977L700.326 413.657ZM703.986 427.317L924.643 45.1276L907.323 35.1276L686.665 417.317L703.986 427.317ZM924.643 45.1276C938.515 21.1005 969.239 12.8683 993.266 26.7403L1003.27 9.41977C969.673 -9.9751 926.718 1.53467 907.323 35.1276L924.643 45.1276ZM993.266 26.7403L1111.21 94.8381L1121.21 77.5176L1003.27 9.41977L993.266 26.7403ZM1111.21 94.8381C1135.24 108.71 1143.47 139.433 1129.6 163.461L1146.92 173.46C1166.32 139.868 1154.81 96.9125 1121.21 77.5176L1111.21 94.8381ZM1129.6 163.46L908.945 545.65L926.265 555.65L1146.92 173.46L1129.6 163.46ZM1043.72 611.916L922.605 541.99L912.605 559.31L1033.72 629.236L1043.72 611.916ZM1069.43 707.859C1088.82 674.266 1077.31 631.311 1043.72 611.916L1033.72 629.236C1057.75 643.108 1065.98 673.832 1052.11 697.859L1069.43 707.859ZM1001.33 825.808L1069.43 707.859L1052.11 697.859L984.01 815.808L1001.33 825.808ZM905.387 851.515C938.98 870.91 981.935 859.401 1001.33 825.808L984.01 815.808C970.138 839.835 939.414 848.067 915.387 834.195L905.387 851.515ZM784.272 781.589L905.387 851.515L915.387 834.195L794.272 764.269L784.272 781.589ZM780.612 767.929L676.505 948.247L693.826 958.247L797.932 777.929L780.612 767.929ZM676.505 948.247C662.633 972.274 631.91 980.506 607.883 966.634L597.883 983.955C631.476 1003.35 674.431 991.84 693.826 958.247L676.505 948.247ZM607.883 966.634L489.934 898.536L479.934 915.857L597.883 983.955L607.883 966.634ZM489.934 898.536C465.907 884.664 457.675 853.941 471.547 829.914L454.226 819.914C434.831 853.507 446.341 896.462 479.934 915.857L489.934 898.536ZM471.547 829.914L575.653 649.596L558.333 639.596L454.226 819.914L471.547 829.914ZM450.667 588.983L561.993 653.257L571.993 635.936L460.667 571.662L450.667 588.983ZM249.019 958.247L464.327 585.322L447.007 575.322L231.699 948.247L249.019 958.247ZM153.077 983.955C186.669 1003.35 229.625 991.84 249.019 958.247L231.699 948.247C217.827 972.274 187.104 980.506 163.077 966.634L153.077 983.955ZM35.1276 915.857L153.077 983.955L163.077 966.634L45.1276 898.536L35.1276 915.857Z" fill="#F62974" mask="url(#path-1-outside-1_103_1601)"/>
</svg>
