<svg width="225" height="39" viewBox="0 0 225 39" fill="none" xmlns="http://www.w3.org/2000/svg">
<path d="M206.632 29.7406V23.6853H213.333C213.576 23.6853 213.791 23.6584 213.979 23.6045C214.195 23.5238 214.369 23.4296 214.504 23.322C214.639 23.1874 214.733 23.0394 214.787 22.8779C214.867 22.7164 214.908 22.528 214.908 22.3127C214.908 22.1243 214.867 21.9494 214.787 21.7879C214.733 21.6265 214.612 21.4515 214.423 21.2631C214.262 21.0478 214.033 20.8056 213.737 20.5365C213.441 20.2405 213.051 19.8906 212.566 19.4869C212.001 19.0025 211.53 18.545 211.153 18.1144C210.777 17.6838 210.467 17.2666 210.225 16.8629C210.01 16.4323 209.848 16.0017 209.74 15.5711C209.633 15.1405 209.579 14.683 209.579 14.1986C209.579 13.3912 209.714 12.6646 209.983 12.0187C210.279 11.3458 210.669 10.7807 211.153 10.3232C211.665 9.83874 212.27 9.47542 212.97 9.2332C213.697 8.96408 214.504 8.82951 215.392 8.82951H225V14.8041H218.581C218.366 14.8041 218.164 14.831 217.976 14.8848C217.814 14.9387 217.666 15.0329 217.532 15.1674C217.424 15.2751 217.33 15.4096 217.249 15.5711C217.195 15.7326 217.168 15.921 217.168 16.1363C217.168 16.3247 217.195 16.4996 217.249 16.6611C217.303 16.7956 217.411 16.9706 217.572 17.1859C217.734 17.3743 217.962 17.603 218.258 17.8721C218.581 18.1413 218.972 18.4642 219.429 18.841C219.994 19.3523 220.479 19.8368 220.882 20.2943C221.286 20.7518 221.609 21.2093 221.851 21.6668C222.093 22.0974 222.268 22.5415 222.376 22.999C222.484 23.4565 222.537 23.9275 222.537 24.4119C222.537 25.2462 222.403 25.9998 222.134 26.6726C221.865 27.3185 221.474 27.8702 220.963 28.3277C220.479 28.7852 219.873 29.1351 219.146 29.3773C218.447 29.6195 217.653 29.7406 216.765 29.7406H206.632Z" fill="white"/>
<path d="M181.298 29.7406V1.6035H188.202V29.7406H181.298ZM186.223 19.1236L185.133 13.6334C186.345 11.8303 187.771 10.4712 189.413 9.55618C191.054 8.61424 192.911 8.14327 194.984 8.14327C196.437 8.14327 197.729 8.37202 198.859 8.82954C199.989 9.28705 200.945 9.95987 201.725 10.848C202.506 11.7092 203.098 12.7991 203.501 14.1179C203.905 15.4097 204.107 16.9168 204.107 18.6392V29.7406H197.204V19.608C197.204 17.8856 196.854 16.6073 196.154 15.773C195.454 14.9118 194.405 14.4812 193.005 14.4812C191.714 14.4812 190.529 14.858 189.453 15.6115C188.376 16.3651 187.3 17.5358 186.223 19.1236Z" fill="white"/>
<path d="M170.317 8.14325C171.958 8.14325 173.506 8.43929 174.959 9.03137C176.412 9.59653 177.664 10.4039 178.713 11.4535L175.04 16.3785C174.421 15.8133 173.721 15.3827 172.941 15.0867C172.16 14.7638 171.366 14.6023 170.559 14.6023C169.859 14.6023 169.2 14.7234 168.581 14.9656C167.989 15.1809 167.477 15.4904 167.047 15.8941C166.643 16.2978 166.32 16.7957 166.078 17.3877C165.836 17.9529 165.714 18.5853 165.714 19.2851C165.714 19.9579 165.836 20.5903 166.078 21.1824C166.32 21.7745 166.643 22.2724 167.047 22.6761C167.477 23.0797 167.989 23.4027 168.581 23.6449C169.2 23.8871 169.859 24.0082 170.559 24.0082C171.393 24.0082 172.2 23.8602 172.981 23.5642C173.761 23.2412 174.448 22.7972 175.04 22.232L178.713 27.157C177.664 28.2066 176.412 29.0274 174.959 29.6195C173.506 30.1847 171.972 30.4673 170.357 30.4673C168.742 30.4673 167.235 30.1847 165.836 29.6195C164.436 29.0543 163.225 28.2739 162.202 27.2781C161.18 26.2823 160.372 25.0982 159.78 23.7256C159.215 22.3531 158.932 20.8729 158.932 19.2851C158.932 17.6972 159.215 16.2305 159.78 14.8849C160.372 13.5123 161.18 12.3282 162.202 11.3324C163.225 10.3366 164.423 9.55616 165.795 8.991C167.195 8.42583 168.702 8.14325 170.317 8.14325Z" fill="white"/>
<path d="M146.386 13.9564C145.632 13.9564 144.946 14.0775 144.327 14.3197C143.735 14.5619 143.224 14.9118 142.793 15.3693C142.363 15.8268 142.026 16.3651 141.784 16.984C141.542 17.603 141.421 18.3162 141.421 19.1236C141.421 19.9041 141.542 20.6172 141.784 21.2631C142.026 21.8821 142.363 22.4204 142.793 22.8779C143.251 23.3085 143.789 23.6449 144.408 23.8871C145.027 24.1293 145.74 24.2504 146.547 24.2504C147.409 24.2504 148.23 24.1024 149.01 23.8064C149.817 23.4834 150.584 23.0125 151.311 22.3935L154.5 27.3185C153.424 28.3412 152.172 29.1216 150.746 29.6599C149.346 30.1981 147.839 30.4673 146.225 30.4673C144.583 30.4673 143.076 30.1981 141.703 29.6599C140.331 29.0947 139.147 28.3277 138.151 27.3589C137.182 26.3631 136.415 25.1789 135.85 23.8064C135.311 22.4338 135.042 20.9267 135.042 19.2851C135.042 17.6434 135.311 16.1498 135.85 14.8041C136.415 13.4316 137.182 12.2609 138.151 11.292C139.147 10.2963 140.331 9.52925 141.703 8.991C143.103 8.42583 144.623 8.14325 146.265 8.14325C147.772 8.14325 149.158 8.37201 150.423 8.82952C151.715 9.26012 152.832 9.89257 153.774 10.7269C154.742 11.5612 155.523 12.5704 156.115 13.7545C156.734 14.9118 157.138 16.2036 157.326 17.6299L139.523 23.0394L138.433 19.164L153.168 14.7234L151.23 17.6299C151.123 17.0917 150.921 16.5938 150.625 16.1363C150.356 15.6788 150.006 15.302 149.575 15.006C149.145 14.683 148.66 14.4273 148.122 14.239C147.584 14.0506 147.005 13.9564 146.386 13.9564Z" fill="white"/>
<path d="M127.412 4.42941V18.72C127.412 20.4693 127.788 21.788 128.542 22.6762C129.296 23.5643 130.426 24.0083 131.933 24.0083C132.256 24.0083 132.552 23.9949 132.821 23.968C133.117 23.9141 133.386 23.8334 133.629 23.7258V30.0233C133.144 30.1848 132.66 30.2924 132.175 30.3463C131.718 30.427 131.206 30.4674 130.641 30.4674C127.466 30.4674 124.976 29.4581 123.173 27.4397C121.397 25.3943 120.509 22.5551 120.509 18.9219V4.42941H127.412ZM124.384 14.8042V8.82963H133.548V14.8042H124.384Z" fill="white"/>
<path d="M101.863 38.6218H94.9598V20.3347C94.9598 18.4508 95.2289 16.7687 95.7672 15.2885C96.3054 13.7814 97.059 12.5031 98.0278 11.4535C98.9967 10.377 100.167 9.55616 101.54 8.991C102.939 8.42583 104.5 8.14325 106.223 8.14325C107.945 8.14325 109.506 8.42583 110.906 8.991C112.332 9.55616 113.543 10.3501 114.539 11.3728C115.561 12.3685 116.355 13.5796 116.92 15.006C117.486 16.4323 117.768 18.0067 117.768 19.7291C117.768 21.2901 117.526 22.703 117.042 23.9679C116.584 25.2328 115.925 26.3227 115.063 27.2377C114.229 28.1528 113.22 28.866 112.036 29.3773C110.852 29.8886 109.533 30.1443 108.08 30.1443C107.138 30.1443 106.223 30.0232 105.335 29.781C104.446 29.5657 103.612 29.2427 102.832 28.8121C102.078 28.3815 101.392 27.8702 100.773 27.2781C100.181 26.6591 99.6695 25.9729 99.2389 25.2193L100.046 19.8502C100.719 21.0882 101.607 22.0571 102.711 22.7568C103.841 23.4565 105.065 23.8064 106.384 23.8064C107.057 23.8064 107.676 23.6987 108.241 23.4834C108.806 23.2681 109.277 22.9721 109.654 22.5953C110.058 22.1916 110.354 21.7207 110.542 21.1824C110.757 20.6442 110.865 20.0521 110.865 19.4062C110.865 18.6795 110.744 18.0336 110.502 17.4685C110.287 16.9033 109.977 16.4189 109.573 16.0152C109.197 15.5846 108.726 15.2616 108.16 15.0463C107.595 14.8041 106.976 14.683 106.303 14.683C105.577 14.683 104.944 14.8041 104.406 15.0463C103.868 15.2616 103.41 15.598 103.034 16.0556C102.657 16.4862 102.361 17.0244 102.145 17.6703C101.957 18.2893 101.863 19.0025 101.863 19.8099V38.6218Z" fill="white"/>
<path d="M87.4559 17.1859L88.1826 22.5146C88.0211 23.5104 87.6578 24.4523 87.0926 25.3404C86.5544 26.2285 85.8815 27.009 85.0742 27.6818C84.2668 28.3546 83.3248 28.8929 82.2483 29.2966C81.1718 29.6733 80.0146 29.8617 78.7766 29.8617C77.3772 29.8617 76.0719 29.6061 74.8608 29.0947C73.6767 28.5565 72.654 27.8298 71.7928 26.9148C70.9585 25.9729 70.2991 24.8694 69.8147 23.6045C69.3303 22.3127 69.0881 20.9133 69.0881 19.4062C69.0881 17.7645 69.3707 16.2574 69.9358 14.8849C70.501 13.5123 71.2949 12.3282 72.3176 11.3324C73.3403 10.3366 74.5648 9.55616 75.9912 8.991C77.4175 8.42583 78.9785 8.14325 80.6739 8.14325C82.3694 8.14325 83.9035 8.42583 85.276 8.991C86.6755 9.55616 87.8596 10.377 88.8285 11.4535C89.8242 12.5031 90.5778 13.7814 91.0891 15.2885C91.6274 16.7687 91.8965 18.4508 91.8965 20.3347V29.7406H85.5586V24.9367L84.9934 23.5238V19.8099C84.9934 19.0025 84.8858 18.2893 84.6705 17.6703C84.4821 17.0244 84.1995 16.4862 83.8227 16.0556C83.446 15.598 82.975 15.2616 82.4098 15.0463C81.8716 14.8041 81.266 14.683 80.5932 14.683C79.8935 14.683 79.261 14.8041 78.6959 15.0463C78.1307 15.2616 77.6463 15.5846 77.2426 16.0152C76.8389 16.4189 76.5294 16.9168 76.3141 17.5088C76.0988 18.074 75.9912 18.7065 75.9912 19.4062C75.9912 20.079 76.0853 20.6845 76.2737 21.2228C76.489 21.761 76.7851 22.232 77.1619 22.6357C77.5386 23.0125 77.9961 23.3085 78.5344 23.5238C79.0727 23.7122 79.6782 23.8064 80.351 23.8064C81.1584 23.8064 81.9254 23.6584 82.652 23.3623C83.4056 23.0394 84.0784 22.5953 84.6705 22.0302C85.2895 21.465 85.8277 20.7787 86.2852 19.9713C86.7696 19.164 87.1599 18.2355 87.4559 17.1859Z" fill="white"/>
<path d="M43.6736 29.7407V1.60352H50.5767V29.7407H43.6736ZM48.5986 19.1236L47.5086 13.6335C48.7197 11.8303 50.1461 10.4712 51.7877 9.55619C53.4294 8.61425 55.2864 8.14328 57.3586 8.14328C58.8119 8.14328 60.1037 8.37204 61.2341 8.82955C62.3644 9.28707 63.3198 9.95988 64.1003 10.848C64.8807 11.7092 65.4728 12.7992 65.8765 14.1179C66.2802 15.4097 66.482 16.9168 66.482 18.6392V29.7407H59.5789V19.6081C59.5789 17.8856 59.2291 16.6073 58.5293 15.773C57.8296 14.9118 56.78 14.4812 55.3806 14.4812C54.0888 14.4812 52.9046 14.858 51.8281 15.6115C50.7516 16.3651 49.6751 17.5358 48.5986 19.1236Z" fill="white"/>
<path d="M2.2533 28.0218C1.38097 27.5182 1.08209 26.4027 1.58573 25.5304L15.3049 1.76815C15.8085 0.895821 16.924 0.596939 17.7963 1.10058L21.3676 3.16249C22.2399 3.66613 22.5388 4.78157 22.0352 5.65389L8.31604 29.4162C7.8124 30.2885 6.69696 30.5874 5.82463 30.0837L2.2533 28.0218Z" fill="#F62974"/>
<path d="M31.095 25.4058C30.5914 26.2782 29.4759 26.577 28.6036 26.0734L4.84133 12.3543C3.969 11.8506 3.67012 10.7352 4.17376 9.86285L6.23567 6.29151C6.73931 5.41919 7.85475 5.12031 8.72708 5.62394L32.4893 19.3431C33.3617 19.8467 33.6605 20.9622 33.1569 21.8345L31.095 25.4058Z" fill="#F62974"/>
<path d="M15.7214 28.0218C14.8491 27.5182 14.5502 26.4027 15.0539 25.5304L28.773 1.76815C29.2767 0.895821 30.3921 0.596939 31.2644 1.10058L34.8358 3.16249C35.7081 3.66613 36.007 4.78157 35.5033 5.65389L21.7842 29.4162C21.2805 30.2885 20.1651 30.5874 19.2928 30.0837L15.7214 28.0218Z" fill="#F62974"/>
</svg>
