<svg width="36" height="31" viewBox="0 0 36 31" fill="none" xmlns="http://www.w3.org/2000/svg">
<path d="M1.5795 27.8332C0.707173 27.3295 0.408293 26.2141 0.911931 25.3418L14.6311 1.57949C15.1347 0.707161 16.2502 0.40828 17.1225 0.911918L20.6938 2.97383C21.5661 3.47747 21.865 4.59291 21.3614 5.46523L7.64224 29.2275C7.1386 30.0998 6.02316 30.3987 5.15084 29.8951L1.5795 27.8332Z" fill="#F62974"/>
<path d="M30.4212 25.2172C29.9175 26.0895 28.8021 26.3884 27.9298 25.8847L4.1675 12.1656C3.29517 11.662 2.99629 10.5465 3.49993 9.67419L5.56184 6.10285C6.06548 5.23053 7.18092 4.93165 8.05325 5.43528L31.8155 19.1544C32.6878 19.6581 32.9867 20.7735 32.4831 21.6458L30.4212 25.2172Z" fill="#F62974"/>
<path d="M15.0476 27.8332C14.1753 27.3295 13.8764 26.2141 14.38 25.3418L28.0992 1.57949C28.6028 0.707161 29.7182 0.40828 30.5906 0.911918L34.1619 2.97383C35.0342 3.47747 35.3331 4.59291 34.8295 5.46523L21.1103 29.2275C20.6067 30.0998 19.4912 30.3987 18.6189 29.8951L15.0476 27.8332Z" fill="#F62974"/>
</svg>
