<svg width="73" height="73" viewBox="0 0 73 73" fill="none" xmlns="http://www.w3.org/2000/svg">
<path d="M9.07681 53.3079C3.7692 57.7663 2 71 2 71C2 71 15.2336 69.2307 19.692 63.9231C22.2043 60.9509 22.1689 56.3863 19.3736 53.6264C17.9982 52.3137 16.1865 51.5551 14.2861 51.4964C12.3858 51.4376 10.5307 52.0827 9.07681 53.3079Z" stroke="#F62974" stroke-width="4" stroke-linecap="round" stroke-linejoin="round"/>
<path d="M35.6148 48.0001L24.9996 37.3849C26.8826 32.4999 29.2535 27.8173 32.0764 23.4082C36.1993 16.8161 41.9402 11.3884 48.7529 7.64142C55.5657 3.8944 63.2238 1.95265 70.9989 2.00088C70.9989 11.6253 68.2389 28.5389 49.7685 40.9233C45.2991 43.7495 40.5575 46.1203 35.6148 48.0001Z" stroke="#F62974" stroke-width="4" stroke-linecap="round" stroke-linejoin="round"/>
<path d="M24.9996 37.3857H7.30762C7.30762 37.3857 9.25374 26.6644 14.3844 23.2321C20.1166 19.4106 32.0764 23.2321 32.0764 23.2321" stroke="#F62974" stroke-width="4" stroke-linecap="round" stroke-linejoin="round"/>
<path d="M35.6147 48.0011V65.6931C35.6147 65.6931 46.3361 63.747 49.7684 58.6163C53.5898 52.8841 49.7684 40.9243 49.7684 40.9243" stroke="#F62974" stroke-width="4" stroke-linecap="round" stroke-linejoin="round"/>
</svg>
