<svg width="106" height="74" viewBox="0 0 106 74" fill="none" xmlns="http://www.w3.org/2000/svg">
<path d="M11.2441 12.9134V12.2519C11.2441 6.58995 15.834 2 21.496 2H83.6691C89.3311 2 93.921 6.58995 93.921 12.2519V12.9134M69.2833 66.1573H35.8818" stroke="#F62974" stroke-width="4" stroke-linecap="round"/>
<rect x="68.6376" y="31.4487" width="18.1574" height="18.1574" rx="9.07871" stroke="#F62974" stroke-width="4" stroke-linecap="round"/>
<rect x="18.5354" y="31.4487" width="18.1574" height="18.1574" rx="9.07871" stroke="#F62974" stroke-width="4" stroke-linecap="round"/>
<path d="M10.2519 14.748H94.9131C99.4706 14.748 103.165 18.4426 103.165 23V62.8503C103.165 67.4077 99.4706 71.1022 94.9132 71.1022H77.5349C75.0744 71.1022 72.7803 69.8598 71.4359 67.7991L68.0144 62.5547C65.21 58.2562 60.7028 55.3606 55.6275 54.5971C53.9306 54.3418 52.2042 54.352 50.5105 54.6274L50.2291 54.6732C44.8092 55.5545 39.9906 58.6269 36.9049 63.1691L33.7739 67.7779C32.3613 69.8573 30.0106 71.1022 27.4967 71.1022H10.252C5.69453 71.1022 2 67.4077 2 62.8503V23C2 18.4426 5.69452 14.748 10.2519 14.748Z" stroke="#F62974" stroke-width="4" stroke-linecap="round"/>
</svg>
